<!-- icon666.com - MILLIONS vector ICONS FREE --><svg id="Layer_1" enable-background="new 0 0 512 512" viewBox="0 0 512 512" xmlns="http://www.w3.org/2000/svg"><g><g><path d="m443.015 512h-344.03c-24.813 0-45-20.187-45-45v-422c0-4.187 1.75-8.183 4.826-11.022 3.076-2.84 7.196-4.266 11.373-3.93l374.03 30c7.794.625 13.801 7.133 13.801 14.952v422c0 8.284-6.716 15-15 15z" fill="#7dd5f4"></path></g><path d="m444.214 60.048-188.227-15.097v467.049h187.028c8.284 0 15-6.716 15-15v-422c0-7.819-6.007-14.326-13.801-14.952z" fill="#4793ff"></path><path d="m79.383 14.064h378.553v64h-378.553z" fill="#fff4f4"></path><g><path d="m442.986 90h-343.998c-24.813 0-45-20.187-45-45s20.187-45 45-45h343.998c8.284 0 15 6.716 15 15s-6.716 15-15 15h-343.998c-8.271 0-15 6.729-15 15s6.729 15 15 15h343.998c8.284 0 15 6.716 15 15s-6.716 15-15 15z" fill="#4793ff"></path></g><path d="m255.987 14.064h201.95v64h-201.95z" fill="#f6efea"></path><path clip-rule="evenodd" d="m130.715 135h50.571l27.714 27.715v50.571l-27.714 27.714h-50.571l-27.715-27.714v-50.571z" fill="#fff4f4" fill-rule="evenodd"></path><path d="m181.286 256h-50.571c-3.978 0-7.793-1.581-10.606-4.394l-27.714-27.714c-2.814-2.813-4.395-6.628-4.395-10.606v-50.571c0-3.978 1.581-7.793 4.394-10.606l27.714-27.714c2.813-2.813 6.628-4.394 10.606-4.394h50.571c3.978 0 7.793 1.581 10.606 4.394l27.714 27.714c2.813 2.813 4.394 6.628 4.394 10.606v50.571c0 3.978-1.581 7.793-4.394 10.606l-27.714 27.714c-2.812 2.813-6.627 4.394-10.605 4.394zm-44.358-30h38.144l18.928-18.928v-38.145l-18.928-18.927h-38.144l-18.928 18.928v38.145z" fill="#ff6c6c"></path><path clip-rule="evenodd" d="m347.875 221 24.898 48 24.899 48h-49.797-49.796l24.898-48z" fill="#f6efea" fill-rule="evenodd"></path><path d="m397.672 332h-99.593c-5.238 0-10.098-2.733-12.818-7.209-2.721-4.477-2.909-10.048-.497-14.698l49.796-96c2.579-4.972 7.714-8.093 13.315-8.093s10.736 3.121 13.315 8.093l49.797 96c2.412 4.65 2.224 10.221-.497 14.698-2.721 4.476-7.58 7.209-12.818 7.209zm-74.914-30h50.235l-25.118-48.423z" fill="#e50058"></path><path d="m341 461.148h-170c-8.284 0-15-6.716-15-15s6.716-15 15-15h170c8.284 0 15 6.716 15 15s-6.716 15-15 15z" fill="#00429d"></path><path d="m379 401.148h-246c-8.284 0-15-6.716-15-15s6.716-15 15-15h246c8.284 0 15 6.716 15 15s-6.716 15-15 15z" fill="#00429d"></path><g fill="#525cdd"><path d="m255.987 30h186.999c8.284 0 15-6.716 15-15s-6.716-15-15-15h-186.999z"></path><path d="m442.986 60h-186.999v30h186.999c8.284 0 15-6.716 15-15s-6.716-15-15-15z"></path></g><g fill="#00347b"><path d="m379 371.148h-123.013v30h123.013c8.284 0 15-6.716 15-15s-6.716-15-15-15z"></path><path d="m341 431.148h-85.014v30h85.014c8.284 0 15-6.716 15-15s-6.716-15-15-15z"></path></g></g></svg>